<svg width="24" height="24" viewBox="0 0 24 24" fill="white" xmlns="http://www.w3.org/2000/svg" class="svg-icon svg-icon-youtube-logo"><path fill-rule="evenodd" clip-rule="evenodd" d="M22.5401 6.67C22.2881 5.71873 21.5491 4.97331 20.6001 4.713C18.8801 4.25 12.0001 4.25 12.0001 4.25C12.0001 4.25 5.12009 4.25 3.40009 4.713C2.45106 4.97331 1.71211 5.71873 1.46009 6.67C1.14277 8.42869 0.988785 10.213 1.00009 12C0.988785 13.787 1.14277 15.5713 1.46009 17.33C1.71301 18.2825 2.45414 19.0282 3.40509 19.287C5.12009 19.75 12.0051 19.75 12.0051 19.75C12.0051 19.75 18.8851 19.75 20.6001 19.287C21.5491 19.0267 22.2881 18.2813 22.5401 17.33C22.8574 15.5713 23.0114 13.787 23.0001 12C23.0114 10.213 22.8574 8.42869 22.5401 6.67ZM9.75009 15.27V8.729L15.5001 12L9.75009 15.27Z" fill="white"></path></svg>