<svg width="24" height="24" viewBox="0 0 24 24" fill="white" xmlns="http://www.w3.org/2000/svg" class="svg-icon svg-icon-twitter-logo"><path fill-rule="evenodd" clip-rule="evenodd" d="M20.7679 8.20699C20.7912 11.5932 19.4564 14.8475 17.0619 17.242C14.6674 19.6365 11.4131 20.9713 8.02688 20.948C5.58911 20.9544 3.2014 20.2564 1.15088 18.938C1.50985 18.9771 1.87079 18.9955 2.23188 18.993C4.24756 18.9984 6.20627 18.3245 7.79188 17.08C5.87426 17.0472 4.18959 15.799 3.59988 13.974C3.8797 14.0187 4.16251 14.0421 4.44588 14.044C4.84342 14.0428 5.23922 13.9914 5.62388 13.891C3.53625 13.4666 2.03658 11.6303 2.03788 9.49999V9.44099C2.65823 9.78763 3.35178 9.98261 4.06188 10.01C2.08967 8.6933 1.48213 6.06953 2.67488 4.01999C4.9496 6.82015 8.30584 8.52335 11.9089 8.70599C11.8373 8.36899 11.8008 8.0255 11.7999 7.68099C11.8012 5.84293 12.9247 4.19202 14.634 3.51624C16.3433 2.84045 18.292 3.27679 19.5499 4.61699C20.552 4.4234 21.513 4.0573 22.3899 3.53499C22.0555 4.56892 21.3554 5.44537 20.4209 5.99999C21.3101 5.89964 22.1793 5.66707 22.9999 5.30999C22.3865 6.20227 21.6272 6.98488 20.7539 7.62499C20.7679 7.81999 20.7679 8.01399 20.7679 8.20699Z" fill="white"></path></svg>